<svg xmlns="http://www.w3.org/2000/svg" viewBox="0 0 356.37481 173.19876">
  <g fill="#333">
    <path d="M100.373 34.83l7.2317 12.036 9.853-5.9203c.77208-.46392 1.1143-1.301.76839-1.8767l-5.9833-9.9579c-.34589-.57565-1.2447-.66485-2.0168-.20092l-9.853 5.9202zM163.183 1.5a10.318 10.333 45.001 0 1 3.5859 7.8008 10.318 10.333 45.001 0 1-3.6191 7.8496h8.2949c1.121 0 2.0234-.60303 2.0234-1.3516V2.8518c0-.74855-.9024-1.3516-2.0234-1.3516h-8.2617zm-15.445 2.3047c-11.054 4.3344-37.499 21.011-35.811 23.82l7.459 12.414c1.6946 2.8203 28.789-12.689 37.824-20.42a10.318 10.333 45.001 0 1-.75782.0312 10.318 10.333 45.001 0 1-10.336-10.301 10.318 10.333 45.001 0 1 1.6211-5.5449zM39.623 22.75l-2.416 4.8789c6.8607 3.2448 12.055 6.6938 15.395 10.428l.29102.32422-32.316 96.867-.41992.0879c-4.8216 1.0262-10.742.78155-17.686-.58203l-2.4707 5.0352 47.834 15.959c.57835-1.3174 1.4078-3.0047 2.4824-5.0586-7.4434-3.6734-12.591-7.0922-15.248-10.395l-.25781-.31836 15.025-45.033 4.2676 1.4238c7.6308 2.5458 12.419 4.9798 14.465 7.7285 2.1016 2.6474 3.1568 7.9622 3.5918 16.189l-.002.002 2.2168 44.316 25.762 8.5938 2.6973-5.1934c-5.838-2.7888-10.241-5.904-12.992-9.4434l-.13282-.16992-3.6308-36.209.002-.004c-.78106-8.6169-2.7509-14.808-5.7637-18.576l-1.0938-1.3672 1.7441.15039c8.7217.76326 15.822-.59639 21.377-4.0195 5.5551-3.4231 9.614-8.925 12.184-16.627 3.4298-10.28 2.6529-18.937-2.2598-26.219-4.9127-7.2818-14.067-13.225-27.553-17.725l-45.092-15.045zm28.451 17.523l.625.0937c5.1725.79715 9.7985 1.875 13.879 3.2363 8.4129 2.8068 14.175 6.9582 17.127 12.506 2.952 5.5476 3.0278 12.396.35546 20.406-2.7436 8.2235-7.6881 13.603-14.715 15.889-7.0268 2.2857-16.035 1.5262-27.031-2.1426l-6.2246-2.0781 15.984-47.91z"/>
  </g>
  <g fill="#c0be30" transform="translate(-96.257 -709.39)">
    <rect width="2.081" height="15.042" x="-215.78" y="-753.73" rx=".375" ry="1.4578" transform="scale(1 -1) rotate(31)"/>
    <path d="M194.88 741.28l-9.9375 7.3164c1.5512.59145 3.0461 1.2014 4.4668 1.8359l3.0058-1.8066 5.5742 9.2754-13.217 7.9392 1.5606 2.5957 19.297-9.2617-10.75-17.895zM178.93 753.02l-1.2988.95703 1.5586 2.5957 3.5195-2.1152c-1.1932-.51259-2.4529-.99244-3.7793-1.4375z"/>
  </g>
  <path fill="#c0be30" stroke="#c0be30" stroke-linecap="round" stroke-width="3" d="M330.01 65.618a18.409 2.065.0027017 0 0-9.1973-1.7893 18.409 2.065.0027017 0 0-18.409-.0018 18.409 2.065.0027017 0 0-9.2121 1.7875l18.409.0018z"/>
  <path fill="#333" d="M177.79.0029499c-2.1165 0-3.8223.74462-3.8223 1.6699v15.311c0 6.9964 45.916 1.2476 52.078-.70508 3.3255-1.0538 5.9646-1.0091 8.0859-.7168a10.318 10.333 45.001 0 1-2.0976-6.209 10.318 10.333 45.001 0 1 5.9336-9.3496h-60.178zm72.979 3.3418a10.318 10.333 45.001 0 1 1.916 5.959 10.318 10.333 45.001 0 1-6.7734 9.7051c9.0992 3.7775 17.511 9.4254 24.496 16.658 7.6506 7.9224 17.014 13.947 27.117 17.689.62586 3.5452 1.7642 7.2255 2.4707 8.998.51615 1.2949 5.0158 2.5 11.244 2.5 6.2284 0 11.245-1.115 11.24-2.5-.64802-5.6025-2.7745-11.397-5.3144-15.682a10.318 10.333 44.998 0 1 .0937 1.2734 10.318 10.333 44.998 0 1-10.316 10.35 10.318 10.333 44.998 0 1-10.336-10.301 10.318 10.333 44.998 0 1 10.316-10.35 10.318 10.333 44.998 0 1 1.0117.0488l-28.467-17.105-28.699-17.244z"/>
  <g fill="#075180">
    <path d="M165.753 67.11q31.912 0 31.912 26.594 0 14.95-9.775 21.131-9.775 6.0375-28.462 6.0375h-4.6v32.919q4.7438 2.7312 13.944 3.8812l-.575 5.3188h-39.962l.8625-5.3188q8.1938-1.0062 13.081-3.8812v-77.625q-5.6062-2.875-14.088-3.8812.575-3.45.71875-5.175h36.944zm18.975 26.306q0-20.269-20.412-20.269-4.6 0-9.4875.8625v40.394h4.6q25.3 0 25.3-20.988zM196.373 162.99l.71875-5.3188q6.4688-1.0062 10.206-3.7375l26.881-86.825h8.625l29.612 86.969q3.5938 2.5875 9.4875 3.5938l-.575 5.3188h-35.938l.71875-5.3188q8.3375-1.0062 13.225-3.8812l-7.3312-21.706h-29.038l-6.6125 21.706q4.7438 2.7312 13.944 3.8812l-.575 5.3188h-33.35zm40.538-75.9l-11.644 37.519h24.294l-12.65-37.519zM317.563 154.66h26.881q4.3125-6.325 6.1812-16.244 1.0062-.43125 2.4438-.43125 1.5812 0 3.3062.43125l-1.2938 24.581h-64.112l.8625-5.3188q8.4812-1.0062 12.938-3.8812V76.172q-5.3188-2.875-13.8-3.8812.14375-1.725.71875-5.175h39.819l-.71875 5.175q-7.9062 1.0062-13.225 3.8812v78.488z"/>
  </g>
  <g fill="#c0be30" transform="matrix(1 -.00236 .0009 1 -96.257 -708.89)">
    <circle cx="402.51" cy="757.81" r="9.3255"/>
    <circle cx="337.97" cy="719.01" r="9.3255"/>
    <circle cx="252.05" cy="718.81" r="9.3255"/>
  </g>
</svg>